<svg width="27" height="38" viewBox="0 0 27 38" fill="none" xmlns="http://www.w3.org/2000/svg">
<path d="M12.4363 0C14.9048 0 17.0153 0.872434 18.7679 2.6173C20.5204 4.36217 21.3967 6.48203 21.3967 8.9769C21.3967 10.8897 20.8743 12.5808 19.8294 14.05C18.7846 15.5192 17.4434 16.5692 15.806 17.2H15.3967V15.7769C16.748 15.1897 17.8294 14.2949 18.641 13.0923C19.4525 11.8897 19.8583 10.5179 19.8583 8.9769C19.8583 6.9252 19.1281 5.17253 17.6679 3.7189C16.2076 2.26527 14.4506 1.53845 12.3967 1.53845C10.3506 1.53845 8.59542 2.26527 7.13132 3.7189C5.66722 5.17253 4.93517 6.9252 4.93517 8.9769C4.93517 10.5208 5.34735 11.8997 6.17172 13.1137C6.99605 14.3276 8.07105 15.2282 9.39672 15.8154V17.4539C7.60695 16.8462 6.1595 15.7743 5.05437 14.2384C3.94927 12.7025 3.39672 10.9487 3.39672 8.9769C3.39672 6.48203 4.2794 4.36217 6.04477 2.6173C7.81017 0.872434 9.94067 0 12.4363 0ZM10.4967 38C10.2083 38 9.93682 37.943 9.68232 37.8289C9.42782 37.7148 9.19415 37.5513 8.98132 37.3384L0.065918 28.5L1.55822 26.9846C1.76115 26.7779 1.98945 26.6192 2.24312 26.5084C2.49678 26.3977 2.7608 26.3872 3.03517 26.4769L9.39672 27.7615V9C9.39672 8.16 9.6863 7.45 10.2655 6.87C10.8446 6.29 11.5536 6 12.3924 6C13.2312 6 13.9416 6.29 14.5237 6.87C15.1057 7.45 15.3967 8.16 15.3967 9V19.1385H17.3121C17.4503 19.1385 17.5796 19.1654 17.7001 19.2192C17.8207 19.2731 17.94 19.3205 18.0583 19.3615L24.4583 22.5C25.3865 22.9436 26.0551 23.6635 26.464 24.6596C26.873 25.6558 26.9814 26.6769 26.789 27.7231L25.2967 36.3923C25.2155 36.8632 24.9882 37.2489 24.6147 37.5494C24.2412 37.8498 23.8019 38 23.2967 38H10.4967ZM10.3275 36.4616H23.6742L25.3352 27.0885C25.4121 26.55 25.3672 25.9859 25.2006 25.3962C25.0339 24.8064 24.6685 24.3705 24.1044 24.0885L17.0313 20.5385H13.8583V9C13.8583 8.56153 13.7236 8.20833 13.4541 7.9404C13.1847 7.67243 12.8296 7.53845 12.3888 7.53845C11.9479 7.53845 11.5954 7.67243 11.3313 7.9404C11.0672 8.20833 10.9352 8.56153 10.9352 9V29.6039L2.81212 27.9539L2.27747 28.4885L10.3275 36.4616Z"/>
</svg>
