<svg width="33" height="36" viewBox="0 0 33 36" fill="none" xmlns="http://www.w3.org/2000/svg">
<path d="M16.1121 33.9885V18.3078L2.4198 10.3924V25.3808C2.4198 25.5859 2.47108 25.7783 2.57365 25.9578C2.67621 26.1372 2.83006 26.2911 3.0352 26.4193L16.1121 33.9885ZM17.6506 33.9885L30.7275 26.4193C30.9326 26.2911 31.0865 26.1372 31.189 25.9578C31.2916 25.7783 31.3429 25.5859 31.3429 25.3808V10.3808L17.6506 18.2996V33.9885ZM16.8813 17.027L30.4121 9.16155L17.4967 1.69235C17.2916 1.58979 17.0865 1.5385 16.8813 1.5385C16.6762 1.5385 16.4711 1.58979 16.2659 1.69235L3.33905 9.16155L16.8813 17.027ZM2.26595 27.7501C1.81658 27.4948 1.47348 27.1502 1.23665 26.7163C0.999781 26.2824 0.881348 25.8244 0.881348 25.3424V10.4193C0.881348 9.93722 0.999781 9.47923 1.23665 9.0453C1.47348 8.61137 1.81658 8.26678 2.26595 8.01155L15.4967 0.361551C15.9487 0.120518 16.4129 0 16.8895 0C17.3661 0 17.8249 0.120518 18.2659 0.361551L31.4967 8.01155C31.9461 8.26678 32.2892 8.61137 32.526 9.0453C32.7629 9.47923 32.8813 9.93722 32.8813 10.4193V25.3424C32.8813 25.8244 32.7629 26.2824 32.526 26.7163C32.2892 27.1502 31.9461 27.4948 31.4967 27.7501L18.2659 35.4001C17.814 35.6411 17.3497 35.7616 16.8731 35.7616C16.3965 35.7616 15.9377 35.6411 15.4967 35.4001L2.26595 27.7501Z" fill="white"/>
</svg>
