<svg width="43" height="22" viewBox="0 0 43 22" fill="white" xmlns="http://www.w3.org/2000/svg">
<path d="M3.64615 22C2.88755 22 2.2371 21.7274 1.6948 21.1821C1.1525 20.6369 0.881348 19.985 0.881348 19.2264C0.881348 18.4421 1.15241 17.7852 1.69455 17.2557C2.23668 16.7263 2.88483 16.4615 3.639 16.4615C3.8647 16.4615 4.09293 16.4891 4.3237 16.5443C4.55446 16.5994 4.79036 16.6859 5.0314 16.8039L15.4544 6.38075C15.3365 6.13975 15.25 5.90387 15.1948 5.6731C15.1397 5.4423 15.1121 5.21405 15.1121 4.98835C15.1121 4.20855 15.3848 3.554 15.93 3.0247C16.4753 2.4954 17.1272 2.23075 17.8858 2.23075C18.67 2.23075 19.3269 2.49773 19.8564 3.0317C20.3859 3.56567 20.6506 4.22583 20.6506 5.0122C20.6506 5.1733 20.5622 5.60385 20.3852 6.30385L26.5775 12.4962C26.8186 12.4039 27.0417 12.3366 27.2468 12.2943C27.4519 12.2519 27.6635 12.2307 27.8814 12.2307C28.0993 12.2307 28.3173 12.2583 28.5352 12.3135C28.7532 12.3686 28.9698 12.4551 29.1852 12.5731L37.6852 4.07305C37.5673 3.85768 37.4807 3.64102 37.4256 3.42305C37.3705 3.20512 37.3429 2.9833 37.3429 2.7576C37.3429 1.9778 37.6156 1.32325 38.1608 0.793951C38.706 0.264651 39.3579 0 40.1165 0C40.9008 0 41.5576 0.266218 42.0871 0.798651C42.6166 1.33108 42.8813 1.98942 42.8813 2.77365C42.8813 3.53225 42.6167 4.1827 42.0874 4.725C41.5581 5.2673 40.9035 5.53845 40.1237 5.53845C39.898 5.53845 39.6762 5.51088 39.4583 5.45575C39.2403 5.40065 39.0237 5.31412 38.8083 5.19615L30.3083 13.6962C30.4262 13.9116 30.5128 14.1282 30.5679 14.3462C30.623 14.5641 30.6506 14.786 30.6506 15.0117C30.6506 15.7658 30.3844 16.414 29.8519 16.9561C29.3195 17.4982 28.6611 17.7693 27.8769 17.7693C27.1183 17.7693 26.4679 17.4982 25.9256 16.9561C25.3833 16.414 25.1121 15.7658 25.1121 15.0117C25.1121 14.786 25.1397 14.5577 25.1948 14.3269C25.2499 14.0961 25.3365 13.8603 25.4544 13.6193L19.2621 7.42695C19.0211 7.54488 18.7852 7.63142 18.5544 7.68655C18.3236 7.74168 18.0951 7.76925 17.8688 7.76925C17.7079 7.76925 17.2775 7.68078 16.5775 7.50385L6.15445 17.927C6.24675 18.168 6.31405 18.391 6.35635 18.5962C6.39865 18.8013 6.4198 19.0167 6.4198 19.2424C6.4198 19.9966 6.15358 20.6447 5.62115 21.1869C5.08871 21.729 4.43038 22 3.64615 22Z"/>
</svg>
