<svg width="36" height="35" viewBox="0 0 36 35" fill="none" xmlns="http://www.w3.org/2000/svg">
<path d="M29.6007 11.3693L23.6583 5.46535L26.6583 2.50385C27.1993 1.96282 27.848 1.6923 28.6044 1.6923C29.3609 1.6923 30.0096 1.96282 30.5506 2.50385L32.5621 4.55385C33.1032 5.09489 33.3737 5.7436 33.3737 6.5C33.3737 7.2564 33.1032 7.8923 32.5621 8.4077L29.6007 11.3693ZM1.89675 33.1308V27.1385L11.2891 17.7462L0.508301 6.9154L7.4006 0L18.2814 10.8423L23.6583 5.46535L29.6007 11.3693L24.2621 16.7846L35.066 27.6654L28.1621 34.5077L17.293 23.727L7.8891 33.1308H1.89675ZM12.4006 16.6731L17.1699 11.9039L12.7891 7.4846L10.4275 9.8846L9.32755 8.7846L11.6891 6.42305L7.41215 2.14615L2.64295 6.9154L12.4006 16.6731ZM28.1006 32.3846L32.8699 27.6154L28.593 23.3385L26.2314 25.7L25.1314 24.6L27.493 22.2385L23.1121 17.8577L18.343 22.627L28.1006 32.3846ZM3.43525 31.5923H7.20445L27.3776 11.4193L23.6083 7.65L3.43525 27.8231V31.5923Z"/>
</svg>
