<svg width="32" height="34" viewBox="0 0 32 34" fill="white" xmlns="http://www.w3.org/2000/svg">
<path d="M21 34C20.7795 34 20.5962 33.9269 20.45 33.7808C20.3038 33.6346 20.2307 33.4513 20.2307 33.2308C20.2307 33.0025 20.3038 32.8173 20.45 32.675C20.5962 32.5327 20.7795 32.4616 21 32.4616C23.0949 32.4616 24.8622 32.0359 26.3019 31.1846C27.7417 30.3333 28.4616 29.2718 28.4616 28C28.4616 27.0282 27.925 26.118 26.8519 25.2693C25.7788 24.4205 24.2936 23.7833 22.3961 23.3577L23.6693 22.0846C25.8205 22.641 27.4135 23.4519 28.4481 24.5173C29.4827 25.5827 30 26.7436 30 28C30 29.9256 29.0667 31.4071 27.2 32.4443C25.3333 33.4814 23.2667 34 21 34ZM5.6923 19.8C3.68717 19.2821 2.23717 18.5808 1.3423 17.6962C0.447433 16.8116 0 15.9128 0 15C0 13.9872 0.426917 13.0718 1.28075 12.2539C2.13462 11.4359 3.91027 10.4859 6.6077 9.40385C8.85897 8.50128 10.359 7.74872 11.1077 7.14615C11.8564 6.54358 12.2307 5.83205 12.2307 5.01155C12.2307 4.05002 11.7743 3.23078 10.8615 2.55385C9.94872 1.87692 8.66153 1.53845 7 1.53845C6.04873 1.53845 5.1795 1.68717 4.3923 1.9846C3.60513 2.28203 2.9359 2.7064 2.3846 3.2577C2.24617 3.39617 2.07117 3.47758 1.8596 3.50195C1.64807 3.52628 1.46538 3.48205 1.31155 3.36925C1.12435 3.23078 1.02883 3.0577 1.025 2.85C1.02117 2.6423 1.07565 2.45255 1.18845 2.28075C1.67818 1.62435 2.46408 1.08012 3.54615 0.64805C4.62822 0.216017 5.7795 0 7 0C9.01027 0 10.641 0.471149 11.8923 1.41345C13.1436 2.35575 13.7693 3.55512 13.7693 5.01155C13.7693 6.14745 13.3135 7.14552 12.402 8.00575C11.4904 8.86602 9.76665 9.8 7.23075 10.8077C5.02308 11.6923 3.52245 12.4404 2.72885 13.052C1.93525 13.6635 1.53845 14.3128 1.53845 15C1.53845 15.6615 1.98205 16.2917 2.86925 16.8904C3.75642 17.4891 5.12565 18.0436 6.97695 18.5539L5.6923 19.8ZM29.0307 10.677L24.8231 6.46925L26.65 4.6423C27.0705 4.2218 27.5256 4.00513 28.0154 3.9923C28.5051 3.97947 28.9602 4.18332 29.3807 4.60385L30.8961 6.11925C31.3167 6.53975 31.5205 6.99487 31.5077 7.4846C31.4949 7.97437 31.2782 8.4295 30.8577 8.85L29.0307 10.677ZM4.1923 31.3077H6.1769L23.7346 13.75L21.75 11.7654L4.1923 29.3231V31.3077ZM2.65385 32.8461V28.6769L21.75 9.5423L25.9577 13.75L6.8231 32.8461H2.65385Z"/>
</svg>
