<svg width="37" height="28" viewBox="0 0 37 28" fill="white" xmlns="http://www.w3.org/2000/svg">
<path d="M3.65055 28C2.88198 28 2.2283 27.7306 1.6895 27.1919C1.15073 26.6531 0.881348 25.9994 0.881348 25.2308V2.7692C0.881348 2.00063 1.15073 1.34695 1.6895 0.808151C2.2283 0.269385 2.88198 0 3.65055 0H34.1121C34.8807 0 35.5344 0.269385 36.0732 0.808151C36.612 1.34695 36.8813 2.00063 36.8813 2.7692V25.2308C36.8813 25.9994 36.612 26.6531 36.0732 27.1919C35.5344 27.7306 34.8807 28 34.1121 28H3.65055ZM3.65055 26.4616H34.1121C34.4198 26.4616 34.7019 26.3334 34.9583 26.077C35.2147 25.8205 35.3429 25.5385 35.3429 25.2308V5.62305H2.4198V25.2308C2.4198 25.5385 2.548 25.8205 2.8044 26.077C3.06083 26.3334 3.34288 26.4616 3.65055 26.4616Z"/>
</svg>
