<svg width="309" height="251" viewBox="0 0 309 251" fill="none" xmlns="http://www.w3.org/2000/svg">
<path d="M277.238 62.5537C277.434 65.2989 277.434 68.0446 277.434 70.7898C277.434 154.521 213.713 251 97.2491 251C61.3687 251 28.0376 240.607 0 222.567C5.09792 223.155 9.99909 223.351 15.2931 223.351C44.8987 223.351 72.1524 213.35 93.9159 196.29C66.0744 195.702 42.7424 177.465 34.7035 152.365C38.6252 152.953 42.5462 153.345 46.664 153.345C52.3498 153.345 58.0361 152.56 63.3296 151.188C34.3118 145.305 12.5477 119.813 12.5477 89.0265V88.2424C20.9783 92.9486 30.7824 95.89 41.1732 96.2817C24.1154 84.9081 12.94 65.495 12.94 43.5324C12.94 31.767 16.0765 20.9818 21.5667 11.5692C52.7414 50.0036 99.6016 75.1032 152.147 77.8489C151.167 73.1427 150.578 68.2408 150.578 63.3384C150.578 28.4333 178.812 0 213.908 0C232.142 0 248.611 7.64764 260.18 20.0016C274.492 17.2564 288.217 11.9616 300.373 4.70628C295.667 19.4136 285.668 31.7676 272.532 39.6108C285.276 38.2388 297.629 34.7083 309 29.8065C300.375 42.3559 289.59 53.5328 277.238 62.5537Z" fill="white"/>
</svg>
